<?xml version="1.0" encoding="UTF-8" standalone="no"?><svg xmlns="http://www.w3.org/2000/svg" xmlns:xlink="http://www.w3.org/1999/xlink" contentScriptType="application/ecmascript" contentStyleType="text/css" height="525px" preserveAspectRatio="none" style="width:2059px;height:525px;" version="1.1" viewBox="0 0 2059 525" width="2059px" zoomAndPan="magnify"><defs><filter height="300%" id="fjyfl8f" width="300%" x="-1" y="-1"><feGaussianBlur result="blurOut" stdDeviation="2.0"/><feColorMatrix in="blurOut" result="blurOut2" type="matrix" values="0 0 0 0 0 0 0 0 0 0 0 0 0 0 0 0 0 0 .4 0"/><feOffset dx="4.0" dy="4.0" in="blurOut2" result="blurOut3"/><feBlend in="SourceGraphic" in2="blurOut3" mode="normal"/></filter></defs><g><!--class match_parser--><rect fill="#FEFECE" filter="url(#fjyfl8f)" height="78.4141" style="stroke: #A80036; stroke-width: 1.5;" width="132" x="204.25" y="293"/><ellipse cx="226" cy="309" fill="#A9DCDF" rx="11" ry="11" style="stroke: #A80036; stroke-width: 1.0;"/><path d="M226.1094,304.3438 L224.9531,309.4219 L227.2813,309.4219 L226.1094,304.3438 Z M224.625,302.1094 L227.6094,302.1094 L230.9688,314.5 L228.5156,314.5 L227.75,311.4375 L224.4688,311.4375 L223.7188,314.5 L221.2813,314.5 L224.625,302.1094 Z "/><text fill="#000000" font-family="sans-serif" font-size="12" font-style="italic" lengthAdjust="spacingAndGlyphs" textLength="85" x="241.5" y="313.1543">match_parser</text><line style="stroke: #A80036; stroke-width: 1.5;" x1="205.25" x2="335.25" y1="325" y2="325"/><polygon fill="#FFFF44" points="215.25,331.9023,219.25,335.9023,215.25,339.9023,211.25,335.9023" style="stroke: #B38D22; stroke-width: 1.0;"/><text fill="#000000" font-family="sans-serif" font-size="11" font-style="italic" lengthAdjust="spacingAndGlyphs" textLength="24" x="224.25" y="339.2104">final</text><text fill="#000000" font-family="sans-serif" font-size="11" lengthAdjust="spacingAndGlyphs" textLength="78" x="252.25" y="339.2104">parse_token()</text><polygon fill="#FFFF44" points="215.25,344.707,219.25,348.707,215.25,352.707,211.25,348.707" style="stroke: #B38D22; stroke-width: 1.0;"/><text fill="#000000" font-family="sans-serif" font-size="11" font-style="italic" lengthAdjust="spacingAndGlyphs" textLength="24" x="224.25" y="352.0151">final</text><text fill="#000000" font-family="sans-serif" font-size="11" lengthAdjust="spacingAndGlyphs" textLength="64" x="252.25" y="352.0151">parse_eoi()</text><polygon fill="#FFFF44" points="215.25,357.5117,219.25,361.5117,215.25,365.5117,211.25,361.5117" style="stroke: #B38D22; stroke-width: 1.0;"/><text fill="#000000" font-family="sans-serif" font-size="11" font-style="italic" lengthAdjust="spacingAndGlyphs" textLength="36" x="224.25" y="364.8198">virtual</text><text fill="#000000" font-family="sans-serif" font-size="11" lengthAdjust="spacingAndGlyphs" textLength="59" x="264.25" y="364.8198">is_match()</text><!--class type_match_parser--><rect fill="#FEFECE" filter="url(#fjyfl8f)" height="52.8047" style="stroke: #A80036; stroke-width: 1.5;" width="151" x="6" y="450.5"/><ellipse cx="21" cy="466.5" fill="#ADD1B2" rx="11" ry="11" style="stroke: #A80036; stroke-width: 1.0;"/><path d="M23.9688,472.1406 Q23.3906,472.4375 22.75,472.5859 Q22.1094,472.7344 21.4063,472.7344 Q18.9063,472.7344 17.5859,471.0859 Q16.2656,469.4375 16.2656,466.3125 Q16.2656,463.1875 17.5859,461.5313 Q18.9063,459.875 21.4063,459.875 Q22.1094,459.875 22.7578,460.0313 Q23.4063,460.1875 23.9688,460.4844 L23.9688,463.2031 Q23.3438,462.625 22.75,462.3516 Q22.1563,462.0781 21.5313,462.0781 Q20.1875,462.0781 19.5,463.1484 Q18.8125,464.2188 18.8125,466.3125 Q18.8125,468.4063 19.5,469.4766 Q20.1875,470.5469 21.5313,470.5469 Q22.1563,470.5469 22.75,470.2734 Q23.3438,470 23.9688,469.4219 L23.9688,472.1406 Z "/><text fill="#000000" font-family="sans-serif" font-size="12" lengthAdjust="spacingAndGlyphs" textLength="119" x="35" y="470.6543">type_match_parser</text><line style="stroke: #A80036; stroke-width: 1.5;" x1="7" x2="156" y1="482.5" y2="482.5"/><polygon fill="#FFFF44" points="17,489.4023,21,493.4023,17,497.4023,13,493.4023" style="stroke: #B38D22; stroke-width: 1.0;"/><text fill="#000000" font-family="sans-serif" font-size="11" font-style="italic" lengthAdjust="spacingAndGlyphs" textLength="24" x="26" y="496.7104">final</text><text fill="#000000" font-family="sans-serif" font-size="11" lengthAdjust="spacingAndGlyphs" textLength="59" x="54" y="496.7104">is_match()</text><!--class value_match_parser--><rect fill="#FEFECE" filter="url(#fjyfl8f)" height="52.8047" style="stroke: #A80036; stroke-width: 1.5;" width="157" x="192" y="450.5"/><ellipse cx="207" cy="466.5" fill="#ADD1B2" rx="11" ry="11" style="stroke: #A80036; stroke-width: 1.0;"/><path d="M209.9688,472.1406 Q209.3906,472.4375 208.75,472.5859 Q208.1094,472.7344 207.4063,472.7344 Q204.9063,472.7344 203.5859,471.0859 Q202.2656,469.4375 202.2656,466.3125 Q202.2656,463.1875 203.5859,461.5313 Q204.9063,459.875 207.4063,459.875 Q208.1094,459.875 208.7578,460.0313 Q209.4063,460.1875 209.9688,460.4844 L209.9688,463.2031 Q209.3438,462.625 208.75,462.3516 Q208.1563,462.0781 207.5313,462.0781 Q206.1875,462.0781 205.5,463.1484 Q204.8125,464.2188 204.8125,466.3125 Q204.8125,468.4063 205.5,469.4766 Q206.1875,470.5469 207.5313,470.5469 Q208.1563,470.5469 208.75,470.2734 Q209.3438,470 209.9688,469.4219 L209.9688,472.1406 Z "/><text fill="#000000" font-family="sans-serif" font-size="12" lengthAdjust="spacingAndGlyphs" textLength="125" x="221" y="470.6543">value_match_parser</text><line style="stroke: #A80036; stroke-width: 1.5;" x1="193" x2="348" y1="482.5" y2="482.5"/><polygon fill="#FFFF44" points="203,489.4023,207,493.4023,203,497.4023,199,493.4023" style="stroke: #B38D22; stroke-width: 1.0;"/><text fill="#000000" font-family="sans-serif" font-size="11" font-style="italic" lengthAdjust="spacingAndGlyphs" textLength="24" x="212" y="496.7104">final</text><text fill="#000000" font-family="sans-serif" font-size="11" lengthAdjust="spacingAndGlyphs" textLength="59" x="240" y="496.7104">is_match()</text><!--class token_parser--><rect fill="#FEFECE" filter="url(#fjyfl8f)" height="78.4141" style="stroke: #A80036; stroke-width: 1.5;" width="144" x="372.25" y="135"/><ellipse cx="400.75" cy="151" fill="#A9DCDF" rx="11" ry="11" style="stroke: #A80036; stroke-width: 1.0;"/><path d="M400.8594,146.3438 L399.7031,151.4219 L402.0313,151.4219 L400.8594,146.3438 Z M399.375,144.1094 L402.3594,144.1094 L405.7188,156.5 L403.2656,156.5 L402.5,153.4375 L399.2188,153.4375 L398.4688,156.5 L396.0313,156.5 L399.375,144.1094 Z "/><text fill="#000000" font-family="sans-serif" font-size="12" font-style="italic" lengthAdjust="spacingAndGlyphs" textLength="82" x="417.75" y="155.1543">token_parser</text><line style="stroke: #A80036; stroke-width: 1.5;" x1="373.25" x2="515.25" y1="167" y2="167"/><ellipse cx="383.25" cy="178.9023" fill="#84BE84" rx="3" ry="3" style="stroke: #038048; stroke-width: 1.0;"/><text fill="#000000" font-family="sans-serif" font-size="11" font-style="italic" lengthAdjust="spacingAndGlyphs" textLength="24" x="392.25" y="181.2104">final</text><text fill="#000000" font-family="sans-serif" font-size="11" lengthAdjust="spacingAndGlyphs" textLength="41" x="420.25" y="181.2104">parse()</text><polygon fill="#FFFF44" points="383.25,186.707,387.25,190.707,383.25,194.707,379.25,190.707" style="stroke: #B38D22; stroke-width: 1.0;"/><text fill="#000000" font-family="sans-serif" font-size="11" font-style="italic" lengthAdjust="spacingAndGlyphs" textLength="36" x="392.25" y="194.0151">virtual</text><text fill="#000000" font-family="sans-serif" font-size="11" lengthAdjust="spacingAndGlyphs" textLength="78" x="432.25" y="194.0151">parse_token()</text><polygon fill="#FFFF44" points="383.25,199.5117,387.25,203.5117,383.25,207.5117,379.25,203.5117" style="stroke: #B38D22; stroke-width: 1.0;"/><text fill="#000000" font-family="sans-serif" font-size="11" font-style="italic" lengthAdjust="spacingAndGlyphs" textLength="36" x="392.25" y="206.8198">virtual</text><text fill="#000000" font-family="sans-serif" font-size="11" lengthAdjust="spacingAndGlyphs" textLength="64" x="432.25" y="206.8198">parse_eoi()</text><!--class eoi_parser--><rect fill="#FEFECE" filter="url(#fjyfl8f)" height="65.6094" style="stroke: #A80036; stroke-width: 1.5;" width="132" x="378.25" y="299"/><ellipse cx="408.55" cy="315" fill="#ADD1B2" rx="11" ry="11" style="stroke: #A80036; stroke-width: 1.0;"/><path d="M411.5188,320.6406 Q410.9406,320.9375 410.3,321.0859 Q409.6594,321.2344 408.9563,321.2344 Q406.4563,321.2344 405.1359,319.5859 Q403.8156,317.9375 403.8156,314.8125 Q403.8156,311.6875 405.1359,310.0313 Q406.4563,308.375 408.9563,308.375 Q409.6594,308.375 410.3078,308.5313 Q410.9563,308.6875 411.5188,308.9844 L411.5188,311.7031 Q410.8938,311.125 410.3,310.8516 Q409.7063,310.5781 409.0813,310.5781 Q407.7375,310.5781 407.05,311.6484 Q406.3625,312.7188 406.3625,314.8125 Q406.3625,316.9063 407.05,317.9766 Q407.7375,319.0469 409.0813,319.0469 Q409.7063,319.0469 410.3,318.7734 Q410.8938,318.5 411.5188,317.9219 L411.5188,320.6406 Z "/><text fill="#000000" font-family="sans-serif" font-size="12" lengthAdjust="spacingAndGlyphs" textLength="66" x="425.95" y="319.1543">eoi_parser</text><line style="stroke: #A80036; stroke-width: 1.5;" x1="379.25" x2="509.25" y1="331" y2="331"/><polygon fill="#FFFF44" points="389.25,337.9023,393.25,341.9023,389.25,345.9023,385.25,341.9023" style="stroke: #B38D22; stroke-width: 1.0;"/><text fill="#000000" font-family="sans-serif" font-size="11" font-style="italic" lengthAdjust="spacingAndGlyphs" textLength="24" x="398.25" y="345.2104">final</text><text fill="#000000" font-family="sans-serif" font-size="11" lengthAdjust="spacingAndGlyphs" textLength="78" x="426.25" y="345.2104">parse_token()</text><polygon fill="#FFFF44" points="389.25,350.707,393.25,354.707,389.25,358.707,385.25,354.707" style="stroke: #B38D22; stroke-width: 1.0;"/><text fill="#000000" font-family="sans-serif" font-size="11" font-style="italic" lengthAdjust="spacingAndGlyphs" textLength="24" x="398.25" y="358.0151">final</text><text fill="#000000" font-family="sans-serif" font-size="11" lengthAdjust="spacingAndGlyphs" textLength="64" x="426.25" y="358.0151">parse_eoi()</text><!--class sequential_parser--><rect fill="#FEFECE" filter="url(#fjyfl8f)" height="91.2188" style="stroke: #A80036; stroke-width: 1.5;" width="191" x="549" y="286.5"/><ellipse cx="585.6" cy="302.5" fill="#A9DCDF" rx="11" ry="11" style="stroke: #A80036; stroke-width: 1.0;"/><path d="M585.7094,297.8438 L584.5531,302.9219 L586.8813,302.9219 L585.7094,297.8438 Z M584.225,295.6094 L587.2094,295.6094 L590.5688,308 L588.1156,308 L587.35,304.9375 L584.0688,304.9375 L583.3188,308 L580.8813,308 L584.225,295.6094 Z "/><text fill="#000000" font-family="sans-serif" font-size="12" font-style="italic" lengthAdjust="spacingAndGlyphs" textLength="111" x="604.4" y="306.6543">sequential_parser</text><line style="stroke: #A80036; stroke-width: 1.5;" x1="550" x2="739" y1="318.5" y2="318.5"/><polygon fill="#FFFF44" points="560,325.4023,564,329.4023,560,333.4023,556,329.4023" style="stroke: #B38D22; stroke-width: 1.0;"/><text fill="#000000" font-family="sans-serif" font-size="11" font-style="italic" lengthAdjust="spacingAndGlyphs" textLength="24" x="569" y="332.7104">final</text><text fill="#000000" font-family="sans-serif" font-size="11" lengthAdjust="spacingAndGlyphs" textLength="83" x="597" y="332.7104">is_sequential()</text><polygon fill="#FFFF44" points="560,338.207,564,342.207,560,346.207,556,342.207" style="stroke: #B38D22; stroke-width: 1.0;"/><text fill="#000000" font-family="sans-serif" font-size="11" font-style="italic" lengthAdjust="spacingAndGlyphs" textLength="36" x="569" y="345.5151">virtual</text><text fill="#000000" font-family="sans-serif" font-size="11" lengthAdjust="spacingAndGlyphs" textLength="117" x="609" y="345.5151">process_left_result()</text><polygon fill="#FFFF44" points="560,351.0117,564,355.0117,560,359.0117,556,355.0117" style="stroke: #B38D22; stroke-width: 1.0;"/><text fill="#000000" font-family="sans-serif" font-size="11" font-style="italic" lengthAdjust="spacingAndGlyphs" textLength="36" x="569" y="358.3198">virtual</text><text fill="#000000" font-family="sans-serif" font-size="11" lengthAdjust="spacingAndGlyphs" textLength="125" x="609" y="358.3198">process_right_result()</text><polygon fill="#FFFF44" points="560,363.8164,564,367.8164,560,371.8164,556,367.8164" style="stroke: #B38D22; stroke-width: 1.0;"/><text fill="#000000" font-family="sans-serif" font-size="11" font-style="italic" lengthAdjust="spacingAndGlyphs" textLength="36" x="569" y="371.1245">virtual</text><text fill="#000000" font-family="sans-serif" font-size="11" lengthAdjust="spacingAndGlyphs" textLength="102" x="609" y="371.1245">combine_results()</text><!--class concatenation_parser--><rect fill="#FEFECE" filter="url(#fjyfl8f)" height="78.4141" style="stroke: #A80036; stroke-width: 1.5;" width="179" x="384" y="438"/><ellipse cx="403.05" cy="454" fill="#ADD1B2" rx="11" ry="11" style="stroke: #A80036; stroke-width: 1.0;"/><path d="M406.0188,459.6406 Q405.4406,459.9375 404.8,460.0859 Q404.1594,460.2344 403.4563,460.2344 Q400.9563,460.2344 399.6359,458.5859 Q398.3156,456.9375 398.3156,453.8125 Q398.3156,450.6875 399.6359,449.0313 Q400.9563,447.375 403.4563,447.375 Q404.1594,447.375 404.8078,447.5313 Q405.4563,447.6875 406.0188,447.9844 L406.0188,450.7031 Q405.3938,450.125 404.8,449.8516 Q404.2063,449.5781 403.5813,449.5781 Q402.2375,449.5781 401.55,450.6484 Q400.8625,451.7188 400.8625,453.8125 Q400.8625,455.9063 401.55,456.9766 Q402.2375,458.0469 403.5813,458.0469 Q404.2063,458.0469 404.8,457.7734 Q405.3938,457.5 406.0188,456.9219 L406.0188,459.6406 Z "/><text fill="#000000" font-family="sans-serif" font-size="12" lengthAdjust="spacingAndGlyphs" textLength="138" x="417.95" y="458.1543">concatenation_parser</text><line style="stroke: #A80036; stroke-width: 1.5;" x1="385" x2="562" y1="470" y2="470"/><polygon fill="#FFFF44" points="395,476.9023,399,480.9023,395,484.9023,391,480.9023" style="stroke: #B38D22; stroke-width: 1.0;"/><text fill="#000000" font-family="sans-serif" font-size="11" font-style="italic" lengthAdjust="spacingAndGlyphs" textLength="24" x="404" y="484.2104">final</text><text fill="#000000" font-family="sans-serif" font-size="11" lengthAdjust="spacingAndGlyphs" textLength="117" x="432" y="484.2104">process_left_result()</text><polygon fill="#FFFF44" points="395,489.707,399,493.707,395,497.707,391,493.707" style="stroke: #B38D22; stroke-width: 1.0;"/><text fill="#000000" font-family="sans-serif" font-size="11" font-style="italic" lengthAdjust="spacingAndGlyphs" textLength="24" x="404" y="497.0151">final</text><text fill="#000000" font-family="sans-serif" font-size="11" lengthAdjust="spacingAndGlyphs" textLength="125" x="432" y="497.0151">process_right_result()</text><polygon fill="#FFFF44" points="395,502.5117,399,506.5117,395,510.5117,391,506.5117" style="stroke: #B38D22; stroke-width: 1.0;"/><text fill="#000000" font-family="sans-serif" font-size="11" font-style="italic" lengthAdjust="spacingAndGlyphs" textLength="24" x="404" y="509.8198">final</text><text fill="#000000" font-family="sans-serif" font-size="11" lengthAdjust="spacingAndGlyphs" textLength="102" x="432" y="509.8198">combine_results()</text><!--class not_sequential_parser--><rect fill="#FEFECE" filter="url(#fjyfl8f)" height="91.2188" style="stroke: #A80036; stroke-width: 1.5;" width="191" x="789" y="286.5"/><ellipse cx="813.45" cy="302.5" fill="#A9DCDF" rx="11" ry="11" style="stroke: #A80036; stroke-width: 1.0;"/><path d="M813.5594,297.8438 L812.4031,302.9219 L814.7313,302.9219 L813.5594,297.8438 Z M812.075,295.6094 L815.0594,295.6094 L818.4188,308 L815.9656,308 L815.2,304.9375 L811.9188,304.9375 L811.1688,308 L808.7313,308 L812.075,295.6094 Z "/><text fill="#000000" font-family="sans-serif" font-size="12" font-style="italic" lengthAdjust="spacingAndGlyphs" textLength="138" x="829.55" y="306.6543">not_sequential_parser</text><line style="stroke: #A80036; stroke-width: 1.5;" x1="790" x2="979" y1="318.5" y2="318.5"/><polygon fill="#FFFF44" points="800,325.4023,804,329.4023,800,333.4023,796,329.4023" style="stroke: #B38D22; stroke-width: 1.0;"/><text fill="#000000" font-family="sans-serif" font-size="11" font-style="italic" lengthAdjust="spacingAndGlyphs" textLength="24" x="809" y="332.7104">final</text><text fill="#000000" font-family="sans-serif" font-size="11" lengthAdjust="spacingAndGlyphs" textLength="83" x="837" y="332.7104">is_sequential()</text><polygon fill="#FFFF44" points="800,338.207,804,342.207,800,346.207,796,342.207" style="stroke: #B38D22; stroke-width: 1.0;"/><text fill="#000000" font-family="sans-serif" font-size="11" font-style="italic" lengthAdjust="spacingAndGlyphs" textLength="36" x="809" y="345.5151">virtual</text><text fill="#000000" font-family="sans-serif" font-size="11" lengthAdjust="spacingAndGlyphs" textLength="117" x="849" y="345.5151">process_left_result()</text><polygon fill="#FFFF44" points="800,351.0117,804,355.0117,800,359.0117,796,355.0117" style="stroke: #B38D22; stroke-width: 1.0;"/><text fill="#000000" font-family="sans-serif" font-size="11" font-style="italic" lengthAdjust="spacingAndGlyphs" textLength="36" x="809" y="358.3198">virtual</text><text fill="#000000" font-family="sans-serif" font-size="11" lengthAdjust="spacingAndGlyphs" textLength="125" x="849" y="358.3198">process_right_result()</text><polygon fill="#FFFF44" points="800,363.8164,804,367.8164,800,371.8164,796,367.8164" style="stroke: #B38D22; stroke-width: 1.0;"/><text fill="#000000" font-family="sans-serif" font-size="11" font-style="italic" lengthAdjust="spacingAndGlyphs" textLength="36" x="809" y="371.1245">virtual</text><text fill="#000000" font-family="sans-serif" font-size="11" lengthAdjust="spacingAndGlyphs" textLength="102" x="849" y="371.1245">combine_results()</text><!--class alternation_parser--><rect fill="#FEFECE" filter="url(#fjyfl8f)" height="78.4141" style="stroke: #A80036; stroke-width: 1.5;" width="179" x="598" y="438"/><ellipse cx="626.95" cy="454" fill="#ADD1B2" rx="11" ry="11" style="stroke: #A80036; stroke-width: 1.0;"/><path d="M629.9188,459.6406 Q629.3406,459.9375 628.7,460.0859 Q628.0594,460.2344 627.3563,460.2344 Q624.8563,460.2344 623.5359,458.5859 Q622.2156,456.9375 622.2156,453.8125 Q622.2156,450.6875 623.5359,449.0313 Q624.8563,447.375 627.3563,447.375 Q628.0594,447.375 628.7078,447.5313 Q629.3563,447.6875 629.9188,447.9844 L629.9188,450.7031 Q629.2938,450.125 628.7,449.8516 Q628.1063,449.5781 627.4813,449.5781 Q626.1375,449.5781 625.45,450.6484 Q624.7625,451.7188 624.7625,453.8125 Q624.7625,455.9063 625.45,456.9766 Q626.1375,458.0469 627.4813,458.0469 Q628.1063,458.0469 628.7,457.7734 Q629.2938,457.5 629.9188,456.9219 L629.9188,459.6406 Z "/><text fill="#000000" font-family="sans-serif" font-size="12" lengthAdjust="spacingAndGlyphs" textLength="116" x="644.05" y="458.1543">alternation_parser</text><line style="stroke: #A80036; stroke-width: 1.5;" x1="599" x2="776" y1="470" y2="470"/><polygon fill="#FFFF44" points="609,476.9023,613,480.9023,609,484.9023,605,480.9023" style="stroke: #B38D22; stroke-width: 1.0;"/><text fill="#000000" font-family="sans-serif" font-size="11" font-style="italic" lengthAdjust="spacingAndGlyphs" textLength="24" x="618" y="484.2104">final</text><text fill="#000000" font-family="sans-serif" font-size="11" lengthAdjust="spacingAndGlyphs" textLength="117" x="646" y="484.2104">process_left_result()</text><polygon fill="#FFFF44" points="609,489.707,613,493.707,609,497.707,605,493.707" style="stroke: #B38D22; stroke-width: 1.0;"/><text fill="#000000" font-family="sans-serif" font-size="11" font-style="italic" lengthAdjust="spacingAndGlyphs" textLength="24" x="618" y="497.0151">final</text><text fill="#000000" font-family="sans-serif" font-size="11" lengthAdjust="spacingAndGlyphs" textLength="125" x="646" y="497.0151">process_right_result()</text><polygon fill="#FFFF44" points="609,502.5117,613,506.5117,609,510.5117,605,506.5117" style="stroke: #B38D22; stroke-width: 1.0;"/><text fill="#000000" font-family="sans-serif" font-size="11" font-style="italic" lengthAdjust="spacingAndGlyphs" textLength="24" x="618" y="509.8198">final</text><text fill="#000000" font-family="sans-serif" font-size="11" lengthAdjust="spacingAndGlyphs" textLength="102" x="646" y="509.8198">combine_results()</text><!--class exception_parser--><rect fill="#FEFECE" filter="url(#fjyfl8f)" height="78.4141" style="stroke: #A80036; stroke-width: 1.5;" width="179" x="812" y="438"/><ellipse cx="844.55" cy="454" fill="#ADD1B2" rx="11" ry="11" style="stroke: #A80036; stroke-width: 1.0;"/><path d="M847.5188,459.6406 Q846.9406,459.9375 846.3,460.0859 Q845.6594,460.2344 844.9563,460.2344 Q842.4563,460.2344 841.1359,458.5859 Q839.8156,456.9375 839.8156,453.8125 Q839.8156,450.6875 841.1359,449.0313 Q842.4563,447.375 844.9563,447.375 Q845.6594,447.375 846.3078,447.5313 Q846.9563,447.6875 847.5188,447.9844 L847.5188,450.7031 Q846.8938,450.125 846.3,449.8516 Q845.7063,449.5781 845.0813,449.5781 Q843.7375,449.5781 843.05,450.6484 Q842.3625,451.7188 842.3625,453.8125 Q842.3625,455.9063 843.05,456.9766 Q843.7375,458.0469 845.0813,458.0469 Q845.7063,458.0469 846.3,457.7734 Q846.8938,457.5 847.5188,456.9219 L847.5188,459.6406 Z "/><text fill="#000000" font-family="sans-serif" font-size="12" lengthAdjust="spacingAndGlyphs" textLength="108" x="862.45" y="458.1543">exception_parser</text><line style="stroke: #A80036; stroke-width: 1.5;" x1="813" x2="990" y1="470" y2="470"/><polygon fill="#FFFF44" points="823,476.9023,827,480.9023,823,484.9023,819,480.9023" style="stroke: #B38D22; stroke-width: 1.0;"/><text fill="#000000" font-family="sans-serif" font-size="11" font-style="italic" lengthAdjust="spacingAndGlyphs" textLength="24" x="832" y="484.2104">final</text><text fill="#000000" font-family="sans-serif" font-size="11" lengthAdjust="spacingAndGlyphs" textLength="117" x="860" y="484.2104">process_left_result()</text><polygon fill="#FFFF44" points="823,489.707,827,493.707,823,497.707,819,493.707" style="stroke: #B38D22; stroke-width: 1.0;"/><text fill="#000000" font-family="sans-serif" font-size="11" font-style="italic" lengthAdjust="spacingAndGlyphs" textLength="24" x="832" y="497.0151">final</text><text fill="#000000" font-family="sans-serif" font-size="11" lengthAdjust="spacingAndGlyphs" textLength="125" x="860" y="497.0151">process_right_result()</text><polygon fill="#FFFF44" points="823,502.5117,827,506.5117,823,510.5117,819,506.5117" style="stroke: #B38D22; stroke-width: 1.0;"/><text fill="#000000" font-family="sans-serif" font-size="11" font-style="italic" lengthAdjust="spacingAndGlyphs" textLength="24" x="832" y="509.8198">final</text><text fill="#000000" font-family="sans-serif" font-size="11" lengthAdjust="spacingAndGlyphs" textLength="102" x="860" y="509.8198">combine_results()</text><!--class binary_parser--><rect fill="#FEFECE" filter="url(#fjyfl8f)" height="104.0234" style="stroke: #A80036; stroke-width: 1.5;" width="191" x="789" y="122"/><ellipse cx="837.75" cy="138" fill="#A9DCDF" rx="11" ry="11" style="stroke: #A80036; stroke-width: 1.0;"/><path d="M837.8594,133.3438 L836.7031,138.4219 L839.0313,138.4219 L837.8594,133.3438 Z M836.375,131.1094 L839.3594,131.1094 L842.7188,143.5 L840.2656,143.5 L839.5,140.4375 L836.2188,140.4375 L835.4688,143.5 L833.0313,143.5 L836.375,131.1094 Z "/><text fill="#000000" font-family="sans-serif" font-size="12" font-style="italic" lengthAdjust="spacingAndGlyphs" textLength="85" x="858.25" y="142.1543">binary_parser</text><line style="stroke: #A80036; stroke-width: 1.5;" x1="790" x2="979" y1="154" y2="154"/><ellipse cx="800" cy="165.9023" fill="#84BE84" rx="3" ry="3" style="stroke: #038048; stroke-width: 1.0;"/><text fill="#000000" font-family="sans-serif" font-size="11" font-style="italic" lengthAdjust="spacingAndGlyphs" textLength="24" x="809" y="168.2104">final</text><text fill="#000000" font-family="sans-serif" font-size="11" lengthAdjust="spacingAndGlyphs" textLength="41" x="837" y="168.2104">parse()</text><polygon fill="#FFFF44" points="800,173.707,804,177.707,800,181.707,796,177.707" style="stroke: #B38D22; stroke-width: 1.0;"/><text fill="#000000" font-family="sans-serif" font-size="11" font-style="italic" lengthAdjust="spacingAndGlyphs" textLength="36" x="809" y="181.0151">virtual</text><text fill="#000000" font-family="sans-serif" font-size="11" lengthAdjust="spacingAndGlyphs" textLength="83" x="849" y="181.0151">is_sequential()</text><polygon fill="#FFFF44" points="800,186.5117,804,190.5117,800,194.5117,796,190.5117" style="stroke: #B38D22; stroke-width: 1.0;"/><text fill="#000000" font-family="sans-serif" font-size="11" font-style="italic" lengthAdjust="spacingAndGlyphs" textLength="36" x="809" y="193.8198">virtual</text><text fill="#000000" font-family="sans-serif" font-size="11" lengthAdjust="spacingAndGlyphs" textLength="117" x="849" y="193.8198">process_left_result()</text><polygon fill="#FFFF44" points="800,199.3164,804,203.3164,800,207.3164,796,203.3164" style="stroke: #B38D22; stroke-width: 1.0;"/><text fill="#000000" font-family="sans-serif" font-size="11" font-style="italic" lengthAdjust="spacingAndGlyphs" textLength="36" x="809" y="206.6245">virtual</text><text fill="#000000" font-family="sans-serif" font-size="11" lengthAdjust="spacingAndGlyphs" textLength="125" x="849" y="206.6245">process_right_result()</text><polygon fill="#FFFF44" points="800,212.1211,804,216.1211,800,220.1211,796,216.1211" style="stroke: #B38D22; stroke-width: 1.0;"/><text fill="#000000" font-family="sans-serif" font-size="11" font-style="italic" lengthAdjust="spacingAndGlyphs" textLength="36" x="809" y="219.4292">virtual</text><text fill="#000000" font-family="sans-serif" font-size="11" lengthAdjust="spacingAndGlyphs" textLength="102" x="849" y="219.4292">combine_results()</text><!--class empty_parser--><rect fill="#FEFECE" filter="url(#fjyfl8f)" height="65.6094" style="stroke: #A80036; stroke-width: 1.5;" width="164" x="1020.25" y="299"/><ellipse cx="1056.4" cy="315" fill="#A9DCDF" rx="11" ry="11" style="stroke: #A80036; stroke-width: 1.0;"/><path d="M1056.5094,310.3438 L1055.3531,315.4219 L1057.6813,315.4219 L1056.5094,310.3438 Z M1055.025,308.1094 L1058.0094,308.1094 L1061.3688,320.5 L1058.9156,320.5 L1058.15,317.4375 L1054.8688,317.4375 L1054.1188,320.5 L1051.6813,320.5 L1055.025,308.1094 Z "/><text fill="#000000" font-family="sans-serif" font-size="12" font-style="italic" lengthAdjust="spacingAndGlyphs" textLength="85" x="1075.1" y="319.1543">empty_parser</text><line style="stroke: #A80036; stroke-width: 1.5;" x1="1021.25" x2="1183.25" y1="331" y2="331"/><polygon fill="#FFFF44" points="1031.25,337.9023,1035.25,341.9023,1031.25,345.9023,1027.25,341.9023" style="stroke: #B38D22; stroke-width: 1.0;"/><text fill="#000000" font-family="sans-serif" font-size="11" font-style="italic" lengthAdjust="spacingAndGlyphs" textLength="24" x="1040.25" y="345.2104">final</text><text fill="#000000" font-family="sans-serif" font-size="11" lengthAdjust="spacingAndGlyphs" textLength="93" x="1068.25" y="345.2104">process_result()</text><polygon fill="#FFFF44" points="1031.25,350.707,1035.25,354.707,1031.25,358.707,1027.25,354.707" style="stroke: #B38D22; stroke-width: 1.0;"/><text fill="#000000" font-family="sans-serif" font-size="11" font-style="italic" lengthAdjust="spacingAndGlyphs" textLength="36" x="1040.25" y="358.0151">virtual</text><text fill="#000000" font-family="sans-serif" font-size="11" lengthAdjust="spacingAndGlyphs" textLength="98" x="1080.25" y="358.0151">is_empty_result()</text><!--class optional_parser--><rect fill="#FEFECE" filter="url(#fjyfl8f)" height="52.8047" style="stroke: #A80036; stroke-width: 1.5;" width="152" x="1026.25" y="450.5"/><ellipse cx="1051.15" cy="466.5" fill="#ADD1B2" rx="11" ry="11" style="stroke: #A80036; stroke-width: 1.0;"/><path d="M1054.1188,472.1406 Q1053.5406,472.4375 1052.9,472.5859 Q1052.2594,472.7344 1051.5563,472.7344 Q1049.0563,472.7344 1047.7359,471.0859 Q1046.4156,469.4375 1046.4156,466.3125 Q1046.4156,463.1875 1047.7359,461.5313 Q1049.0563,459.875 1051.5563,459.875 Q1052.2594,459.875 1052.9078,460.0313 Q1053.5563,460.1875 1054.1188,460.4844 L1054.1188,463.2031 Q1053.4938,462.625 1052.9,462.3516 Q1052.3063,462.0781 1051.6813,462.0781 Q1050.3375,462.0781 1049.65,463.1484 Q1048.9625,464.2188 1048.9625,466.3125 Q1048.9625,468.4063 1049.65,469.4766 Q1050.3375,470.5469 1051.6813,470.5469 Q1052.3063,470.5469 1052.9,470.2734 Q1053.4938,470 1054.1188,469.4219 L1054.1188,472.1406 Z "/><text fill="#000000" font-family="sans-serif" font-size="12" lengthAdjust="spacingAndGlyphs" textLength="98" x="1067.35" y="470.6543">optional_parser</text><line style="stroke: #A80036; stroke-width: 1.5;" x1="1027.25" x2="1177.25" y1="482.5" y2="482.5"/><polygon fill="#FFFF44" points="1037.25,489.4023,1041.25,493.4023,1037.25,497.4023,1033.25,493.4023" style="stroke: #B38D22; stroke-width: 1.0;"/><text fill="#000000" font-family="sans-serif" font-size="11" font-style="italic" lengthAdjust="spacingAndGlyphs" textLength="24" x="1046.25" y="496.7104">final</text><text fill="#000000" font-family="sans-serif" font-size="11" lengthAdjust="spacingAndGlyphs" textLength="98" x="1074.25" y="496.7104">is_empty_result()</text><!--class hide_parser--><rect fill="#FEFECE" filter="url(#fjyfl8f)" height="52.8047" style="stroke: #A80036; stroke-width: 1.5;" width="152" x="1213.25" y="450.5"/><ellipse cx="1248.95" cy="466.5" fill="#ADD1B2" rx="11" ry="11" style="stroke: #A80036; stroke-width: 1.0;"/><path d="M1251.9188,472.1406 Q1251.3406,472.4375 1250.7,472.5859 Q1250.0594,472.7344 1249.3563,472.7344 Q1246.8563,472.7344 1245.5359,471.0859 Q1244.2156,469.4375 1244.2156,466.3125 Q1244.2156,463.1875 1245.5359,461.5313 Q1246.8563,459.875 1249.3563,459.875 Q1250.0594,459.875 1250.7078,460.0313 Q1251.3563,460.1875 1251.9188,460.4844 L1251.9188,463.2031 Q1251.2938,462.625 1250.7,462.3516 Q1250.1063,462.0781 1249.4813,462.0781 Q1248.1375,462.0781 1247.45,463.1484 Q1246.7625,464.2188 1246.7625,466.3125 Q1246.7625,468.4063 1247.45,469.4766 Q1248.1375,470.5469 1249.4813,470.5469 Q1250.1063,470.5469 1250.7,470.2734 Q1251.2938,470 1251.9188,469.4219 L1251.9188,472.1406 Z "/><text fill="#000000" font-family="sans-serif" font-size="12" lengthAdjust="spacingAndGlyphs" textLength="74" x="1267.55" y="470.6543">hide_parser</text><line style="stroke: #A80036; stroke-width: 1.5;" x1="1214.25" x2="1364.25" y1="482.5" y2="482.5"/><polygon fill="#FFFF44" points="1224.25,489.4023,1228.25,493.4023,1224.25,497.4023,1220.25,493.4023" style="stroke: #B38D22; stroke-width: 1.0;"/><text fill="#000000" font-family="sans-serif" font-size="11" font-style="italic" lengthAdjust="spacingAndGlyphs" textLength="24" x="1233.25" y="496.7104">final</text><text fill="#000000" font-family="sans-serif" font-size="11" lengthAdjust="spacingAndGlyphs" textLength="98" x="1261.25" y="496.7104">is_empty_result()</text><!--class assignable_parser--><rect fill="#FEFECE" filter="url(#fjyfl8f)" height="78.4141" style="stroke: #A80036; stroke-width: 1.5;" width="205" x="1509" y="293"/><ellipse cx="1551.45" cy="309" fill="#A9DCDF" rx="11" ry="11" style="stroke: #A80036; stroke-width: 1.0;"/><path d="M1551.5594,304.3438 L1550.4031,309.4219 L1552.7313,309.4219 L1551.5594,304.3438 Z M1550.075,302.1094 L1553.0594,302.1094 L1556.4188,314.5 L1553.9656,314.5 L1553.2,311.4375 L1549.9188,311.4375 L1549.1688,314.5 L1546.7313,314.5 L1550.075,302.1094 Z "/><text fill="#000000" font-family="sans-serif" font-size="12" font-style="italic" lengthAdjust="spacingAndGlyphs" textLength="112" x="1571.55" y="313.1543">assignable_parser</text><line style="stroke: #A80036; stroke-width: 1.5;" x1="1510" x2="1713" y1="325" y2="325"/><ellipse cx="1520" cy="336.9023" fill="#84BE84" rx="3" ry="3" style="stroke: #038048; stroke-width: 1.0;"/><text fill="#000000" font-family="sans-serif" font-size="11" lengthAdjust="spacingAndGlyphs" textLength="66" x="1529" y="339.2104">operator=()</text><polygon fill="#FFFF44" points="1520,344.707,1524,348.707,1520,352.707,1516,348.707" style="stroke: #B38D22; stroke-width: 1.0;"/><text fill="#000000" font-family="sans-serif" font-size="11" font-style="italic" lengthAdjust="spacingAndGlyphs" textLength="24" x="1529" y="352.0151">final</text><text fill="#000000" font-family="sans-serif" font-size="11" lengthAdjust="spacingAndGlyphs" textLength="93" x="1557" y="352.0151">process_result()</text><polygon fill="#FFFF44" points="1520,357.5117,1524,361.5117,1520,365.5117,1516,361.5117" style="stroke: #B38D22; stroke-width: 1.0;"/><text fill="#000000" font-family="sans-serif" font-size="11" font-style="italic" lengthAdjust="spacingAndGlyphs" textLength="36" x="1529" y="364.8198">virtual</text><text fill="#000000" font-family="sans-serif" font-size="11" lengthAdjust="spacingAndGlyphs" textLength="139" x="1569" y="364.8198">process_parsed_result()</text><!--class type_assignable_parser--><rect fill="#FEFECE" filter="url(#fjyfl8f)" height="52.8047" style="stroke: #A80036; stroke-width: 1.5;" width="193" x="1401" y="450.5"/><ellipse cx="1421.85" cy="466.5" fill="#ADD1B2" rx="11" ry="11" style="stroke: #A80036; stroke-width: 1.0;"/><path d="M1424.8188,472.1406 Q1424.2406,472.4375 1423.6,472.5859 Q1422.9594,472.7344 1422.2563,472.7344 Q1419.7563,472.7344 1418.4359,471.0859 Q1417.1156,469.4375 1417.1156,466.3125 Q1417.1156,463.1875 1418.4359,461.5313 Q1419.7563,459.875 1422.2563,459.875 Q1422.9594,459.875 1423.6078,460.0313 Q1424.2563,460.1875 1424.8188,460.4844 L1424.8188,463.2031 Q1424.1938,462.625 1423.6,462.3516 Q1423.0063,462.0781 1422.3813,462.0781 Q1421.0375,462.0781 1420.35,463.1484 Q1419.6625,464.2188 1419.6625,466.3125 Q1419.6625,468.4063 1420.35,469.4766 Q1421.0375,470.5469 1422.3813,470.5469 Q1423.0063,470.5469 1423.6,470.2734 Q1424.1938,470 1424.8188,469.4219 L1424.8188,472.1406 Z "/><text fill="#000000" font-family="sans-serif" font-size="12" lengthAdjust="spacingAndGlyphs" textLength="148" x="1437.15" y="470.6543">type_assignable_parser</text><line style="stroke: #A80036; stroke-width: 1.5;" x1="1402" x2="1593" y1="482.5" y2="482.5"/><polygon fill="#FFFF44" points="1412,489.4023,1416,493.4023,1412,497.4023,1408,493.4023" style="stroke: #B38D22; stroke-width: 1.0;"/><text fill="#000000" font-family="sans-serif" font-size="11" font-style="italic" lengthAdjust="spacingAndGlyphs" textLength="24" x="1421" y="496.7104">final</text><text fill="#000000" font-family="sans-serif" font-size="11" lengthAdjust="spacingAndGlyphs" textLength="139" x="1449" y="496.7104">process_parsed_result()</text><!--class flag_assignable_parser--><rect fill="#FEFECE" filter="url(#fjyfl8f)" height="52.8047" style="stroke: #A80036; stroke-width: 1.5;" width="193" x="1629" y="450.5"/><ellipse cx="1651.65" cy="466.5" fill="#ADD1B2" rx="11" ry="11" style="stroke: #A80036; stroke-width: 1.0;"/><path d="M1654.6188,472.1406 Q1654.0406,472.4375 1653.4,472.5859 Q1652.7594,472.7344 1652.0563,472.7344 Q1649.5563,472.7344 1648.2359,471.0859 Q1646.9156,469.4375 1646.9156,466.3125 Q1646.9156,463.1875 1648.2359,461.5313 Q1649.5563,459.875 1652.0563,459.875 Q1652.7594,459.875 1653.4078,460.0313 Q1654.0563,460.1875 1654.6188,460.4844 L1654.6188,463.2031 Q1653.9938,462.625 1653.4,462.3516 Q1652.8063,462.0781 1652.1813,462.0781 Q1650.8375,462.0781 1650.15,463.1484 Q1649.4625,464.2188 1649.4625,466.3125 Q1649.4625,468.4063 1650.15,469.4766 Q1650.8375,470.5469 1652.1813,470.5469 Q1652.8063,470.5469 1653.4,470.2734 Q1653.9938,470 1654.6188,469.4219 L1654.6188,472.1406 Z "/><text fill="#000000" font-family="sans-serif" font-size="12" lengthAdjust="spacingAndGlyphs" textLength="144" x="1667.35" y="470.6543">flag_assignable_parser</text><line style="stroke: #A80036; stroke-width: 1.5;" x1="1630" x2="1821" y1="482.5" y2="482.5"/><polygon fill="#FFFF44" points="1640,489.4023,1644,493.4023,1640,497.4023,1636,493.4023" style="stroke: #B38D22; stroke-width: 1.0;"/><text fill="#000000" font-family="sans-serif" font-size="11" font-style="italic" lengthAdjust="spacingAndGlyphs" textLength="24" x="1649" y="496.7104">final</text><text fill="#000000" font-family="sans-serif" font-size="11" lengthAdjust="spacingAndGlyphs" textLength="139" x="1677" y="496.7104">process_parsed_result()</text><!--class lift_parser--><rect fill="#FEFECE" filter="url(#fjyfl8f)" height="52.8047" style="stroke: #A80036; stroke-width: 1.5;" width="193" x="1857" y="450.5"/><ellipse cx="1918.25" cy="466.5" fill="#ADD1B2" rx="11" ry="11" style="stroke: #A80036; stroke-width: 1.0;"/><path d="M1921.2188,472.1406 Q1920.6406,472.4375 1920,472.5859 Q1919.3594,472.7344 1918.6563,472.7344 Q1916.1563,472.7344 1914.8359,471.0859 Q1913.5156,469.4375 1913.5156,466.3125 Q1913.5156,463.1875 1914.8359,461.5313 Q1916.1563,459.875 1918.6563,459.875 Q1919.3594,459.875 1920.0078,460.0313 Q1920.6563,460.1875 1921.2188,460.4844 L1921.2188,463.2031 Q1920.5938,462.625 1920,462.3516 Q1919.4063,462.0781 1918.7813,462.0781 Q1917.4375,462.0781 1916.75,463.1484 Q1916.0625,464.2188 1916.0625,466.3125 Q1916.0625,468.4063 1916.75,469.4766 Q1917.4375,470.5469 1918.7813,470.5469 Q1919.4063,470.5469 1920,470.2734 Q1920.5938,470 1921.2188,469.4219 L1921.2188,472.1406 Z "/><text fill="#000000" font-family="sans-serif" font-size="12" lengthAdjust="spacingAndGlyphs" textLength="62" x="1938.75" y="470.6543">lift_parser</text><line style="stroke: #A80036; stroke-width: 1.5;" x1="1858" x2="2049" y1="482.5" y2="482.5"/><polygon fill="#FFFF44" points="1868,489.4023,1872,493.4023,1868,497.4023,1864,493.4023" style="stroke: #B38D22; stroke-width: 1.0;"/><text fill="#000000" font-family="sans-serif" font-size="11" font-style="italic" lengthAdjust="spacingAndGlyphs" textLength="24" x="1877" y="496.7104">final</text><text fill="#000000" font-family="sans-serif" font-size="11" lengthAdjust="spacingAndGlyphs" textLength="139" x="1905" y="496.7104">process_parsed_result()</text><!--class wrapping_parser--><rect fill="#FEFECE" filter="url(#fjyfl8f)" height="65.6094" style="stroke: #A80036; stroke-width: 1.5;" width="159" x="1020" y="141"/><ellipse cx="1045.35" cy="157" fill="#A9DCDF" rx="11" ry="11" style="stroke: #A80036; stroke-width: 1.0;"/><path d="M1045.4594,152.3438 L1044.3031,157.4219 L1046.6313,157.4219 L1045.4594,152.3438 Z M1043.975,150.1094 L1046.9594,150.1094 L1050.3188,162.5 L1047.8656,162.5 L1047.1,159.4375 L1043.8188,159.4375 L1043.0688,162.5 L1040.6313,162.5 L1043.975,150.1094 Z "/><text fill="#000000" font-family="sans-serif" font-size="12" font-style="italic" lengthAdjust="spacingAndGlyphs" textLength="104" x="1061.65" y="161.1543">wrapping_parser</text><line style="stroke: #A80036; stroke-width: 1.5;" x1="1021" x2="1178" y1="173" y2="173"/><ellipse cx="1031" cy="184.9023" fill="#84BE84" rx="3" ry="3" style="stroke: #038048; stroke-width: 1.0;"/><text fill="#000000" font-family="sans-serif" font-size="11" font-style="italic" lengthAdjust="spacingAndGlyphs" textLength="24" x="1040" y="187.2104">final</text><text fill="#000000" font-family="sans-serif" font-size="11" lengthAdjust="spacingAndGlyphs" textLength="41" x="1068" y="187.2104">parse()</text><polygon fill="#FFFF44" points="1031,192.707,1035,196.707,1031,200.707,1027,196.707" style="stroke: #B38D22; stroke-width: 1.0;"/><text fill="#000000" font-family="sans-serif" font-size="11" font-style="italic" lengthAdjust="spacingAndGlyphs" textLength="36" x="1040" y="200.0151">virtual</text><text fill="#000000" font-family="sans-serif" font-size="11" lengthAdjust="spacingAndGlyphs" textLength="93" x="1080" y="200.0151">process_result()</text><!--class rule_parser--><rect fill="#FEFECE" filter="url(#fjyfl8f)" height="52.8047" style="stroke: #A80036; stroke-width: 1.5;" width="102" x="1048.75" y="8.5"/><ellipse cx="1063.75" cy="24.5" fill="#B4A7E5" rx="11" ry="11" style="stroke: #A80036; stroke-width: 1.0;"/><path d="M1059.6719,20.2656 L1059.6719,18.1094 L1067.0625,18.1094 L1067.0625,20.2656 L1064.5938,20.2656 L1064.5938,28.3438 L1067.0625,28.3438 L1067.0625,30.5 L1059.6719,30.5 L1059.6719,28.3438 L1062.1406,28.3438 L1062.1406,20.2656 L1059.6719,20.2656 Z "/><text fill="#000000" font-family="sans-serif" font-size="12" font-style="italic" lengthAdjust="spacingAndGlyphs" textLength="70" x="1077.75" y="28.6543">rule_parser</text><line style="stroke: #A80036; stroke-width: 1.5;" x1="1049.75" x2="1149.75" y1="40.5" y2="40.5"/><ellipse cx="1059.75" cy="52.4023" fill="#84BE84" rx="3" ry="3" style="stroke: #038048; stroke-width: 1.0;"/><text fill="#000000" font-family="sans-serif" font-size="11" lengthAdjust="spacingAndGlyphs" textLength="41" x="1068.75" y="54.7104">parse()</text><!--class repetition_parser--><rect fill="#FEFECE" filter="url(#fjyfl8f)" height="52.8047" style="stroke: #A80036; stroke-width: 1.5;" width="140" x="1214.25" y="147.5"/><ellipse cx="1229.25" cy="163.5" fill="#ADD1B2" rx="11" ry="11" style="stroke: #A80036; stroke-width: 1.0;"/><path d="M1232.2188,169.1406 Q1231.6406,169.4375 1231,169.5859 Q1230.3594,169.7344 1229.6563,169.7344 Q1227.1563,169.7344 1225.8359,168.0859 Q1224.5156,166.4375 1224.5156,163.3125 Q1224.5156,160.1875 1225.8359,158.5313 Q1227.1563,156.875 1229.6563,156.875 Q1230.3594,156.875 1231.0078,157.0313 Q1231.6563,157.1875 1232.2188,157.4844 L1232.2188,160.2031 Q1231.5938,159.625 1231,159.3516 Q1230.4063,159.0781 1229.7813,159.0781 Q1228.4375,159.0781 1227.75,160.1484 Q1227.0625,161.2188 1227.0625,163.3125 Q1227.0625,165.4063 1227.75,166.4766 Q1228.4375,167.5469 1229.7813,167.5469 Q1230.4063,167.5469 1231,167.2734 Q1231.5938,167 1232.2188,166.4219 L1232.2188,169.1406 Z "/><text fill="#000000" font-family="sans-serif" font-size="12" lengthAdjust="spacingAndGlyphs" textLength="108" x="1243.25" y="167.6543">repetition_parser</text><line style="stroke: #A80036; stroke-width: 1.5;" x1="1215.25" x2="1353.25" y1="179.5" y2="179.5"/><ellipse cx="1225.25" cy="191.4023" fill="#84BE84" rx="3" ry="3" style="stroke: #038048; stroke-width: 1.0;"/><text fill="#000000" font-family="sans-serif" font-size="11" font-style="italic" lengthAdjust="spacingAndGlyphs" textLength="24" x="1234.25" y="193.7104">final</text><text fill="#000000" font-family="sans-serif" font-size="11" lengthAdjust="spacingAndGlyphs" textLength="41" x="1262.25" y="193.7104">parse()</text><!--class dummy_parser--><rect fill="#FEFECE" filter="url(#fjyfl8f)" height="65.6094" style="stroke: #A80036; stroke-width: 1.5;" width="123" x="1390" y="141"/><ellipse cx="1405" cy="157" fill="#ADD1B2" rx="11" ry="11" style="stroke: #A80036; stroke-width: 1.0;"/><path d="M1407.9688,162.6406 Q1407.3906,162.9375 1406.75,163.0859 Q1406.1094,163.2344 1405.4063,163.2344 Q1402.9063,163.2344 1401.5859,161.5859 Q1400.2656,159.9375 1400.2656,156.8125 Q1400.2656,153.6875 1401.5859,152.0313 Q1402.9063,150.375 1405.4063,150.375 Q1406.1094,150.375 1406.7578,150.5313 Q1407.4063,150.6875 1407.9688,150.9844 L1407.9688,153.7031 Q1407.3438,153.125 1406.75,152.8516 Q1406.1563,152.5781 1405.5313,152.5781 Q1404.1875,152.5781 1403.5,153.6484 Q1402.8125,154.7188 1402.8125,156.8125 Q1402.8125,158.9063 1403.5,159.9766 Q1404.1875,161.0469 1405.5313,161.0469 Q1406.1563,161.0469 1406.75,160.7734 Q1407.3438,160.5 1407.9688,159.9219 L1407.9688,162.6406 Z "/><text fill="#000000" font-family="sans-serif" font-size="12" lengthAdjust="spacingAndGlyphs" textLength="91" x="1419" y="161.1543">dummy_parser</text><line style="stroke: #A80036; stroke-width: 1.5;" x1="1391" x2="1512" y1="173" y2="173"/><ellipse cx="1401" cy="184.9023" fill="#84BE84" rx="3" ry="3" style="stroke: #038048; stroke-width: 1.0;"/><text fill="#000000" font-family="sans-serif" font-size="11" lengthAdjust="spacingAndGlyphs" textLength="70" x="1410" y="187.2104">set_parser()</text><ellipse cx="1401" cy="197.707" fill="#84BE84" rx="3" ry="3" style="stroke: #038048; stroke-width: 1.0;"/><text fill="#000000" font-family="sans-serif" font-size="11" font-style="italic" lengthAdjust="spacingAndGlyphs" textLength="24" x="1410" y="200.0151">final</text><text fill="#000000" font-family="sans-serif" font-size="11" lengthAdjust="spacingAndGlyphs" textLength="41" x="1438" y="200.0151">parse()</text><path d="M203.48,383.519 C173.554,406.162 139.557,431.8844 115.027,450.4435 " fill="none" style="stroke: #A80036; stroke-width: 1.0;"/><polygon fill="none" points="199.429,377.807,219.601,371.321,207.876,388.971,199.429,377.807" style="stroke: #A80036; stroke-width: 1.0;"/><path d="M270.25,391.42 C270.25,411.88 270.25,433.8193 270.25,450.2254 " fill="none" style="stroke: #A80036; stroke-width: 1.0;"/><polygon fill="none" points="263.25,391.321,270.25,371.321,277.25,391.321,263.25,391.321" style="stroke: #A80036; stroke-width: 1.0;"/><path d="M386.771,226.533 C362.592,248.211 334.962,272.983 312.677,292.962 " fill="none" style="stroke: #A80036; stroke-width: 1.0;"/><polygon fill="none" points="382.121,221.301,401.685,213.162,391.466,231.725,382.121,221.301" style="stroke: #A80036; stroke-width: 1.0;"/><path d="M444.25,233.428 C444.25,255.547 444.25,279.911 444.25,298.76 " fill="none" style="stroke: #A80036; stroke-width: 1.0;"/><polygon fill="none" points="437.25,233.162,444.25,213.162,451.25,233.162,437.25,233.162" style="stroke: #A80036; stroke-width: 1.0;"/><path d="M575.078,390.846 C556.171,406.657 536.158,423.3926 518.925,437.8041 " fill="none" style="stroke: #A80036; stroke-width: 1.0;"/><polygon fill="none" points="570.781,385.314,590.614,377.854,579.762,396.054,570.781,385.314" style="stroke: #A80036; stroke-width: 1.0;"/><path d="M806.378,389.527 C783.999,405.771 760.132,423.0955 739.685,437.9383 " fill="none" style="stroke: #A80036; stroke-width: 1.0;"/><polygon fill="none" points="802.431,383.742,822.728,377.658,810.655,395.072,802.431,383.742" style="stroke: #A80036; stroke-width: 1.0;"/><path d="M891.968,397.924 C893.58,411.478 895.229,425.3494 896.681,437.5684 " fill="none" style="stroke: #A80036; stroke-width: 1.0;"/><polygon fill="none" points="884.992,398.54,889.582,377.854,898.894,396.888,884.992,398.54" style="stroke: #A80036; stroke-width: 1.0;"/><path d="M788.833,237.021 C763.459,253.514 736.552,271.003 712.919,286.365 " fill="none" style="stroke: #A80036; stroke-width: 1.0;"/><polygon fill="none" points="785.081,231.111,805.665,226.08,792.711,242.849,785.081,231.111" style="stroke: #A80036; stroke-width: 1.0;"/><path d="M884.25,246.338 C884.25,259.967 884.25,273.87 884.25,286.365 " fill="none" style="stroke: #A80036; stroke-width: 1.0;"/><polygon fill="none" points="877.25,246.08,884.25,226.08,891.25,246.08,877.25,246.08" style="stroke: #A80036; stroke-width: 1.0;"/><path d="M1102.25,385.19 C1102.25,407.324 1102.25,432.1278 1102.25,450.2125 " fill="none" style="stroke: #A80036; stroke-width: 1.0;"/><polygon fill="none" points="1095.25,385.092,1102.25,365.092,1109.25,385.092,1095.25,385.092" style="stroke: #A80036; stroke-width: 1.0;"/><path d="M1160.42,377.486 C1191.79,401.472 1229.37,430.212 1255.83,450.4416 " fill="none" style="stroke: #A80036; stroke-width: 1.0;"/><polygon fill="none" points="1155.85,382.802,1144.22,365.092,1164.36,371.681,1155.85,382.802" style="stroke: #A80036; stroke-width: 1.0;"/><path d="M1567.99,387.265 C1550.77,408.868 1531.77,432.7026 1517.8,450.2254 " fill="none" style="stroke: #A80036; stroke-width: 1.0;"/><polygon fill="none" points="1562.76,382.597,1580.7,371.321,1573.71,391.324,1562.76,382.597" style="stroke: #A80036; stroke-width: 1.0;"/><path d="M1654.51,387.265 C1671.73,408.868 1690.73,432.7026 1704.7,450.2254 " fill="none" style="stroke: #A80036; stroke-width: 1.0;"/><polygon fill="none" points="1648.79,391.324,1641.8,371.321,1659.74,382.597,1648.79,391.324" style="stroke: #A80036; stroke-width: 1.0;"/><path d="M1721.23,378.985 C1777.89,402.678 1844.85,430.6728 1892.23,450.4852 " fill="none" style="stroke: #A80036; stroke-width: 1.0;"/><polygon fill="none" points="1718.2,385.307,1702.45,371.134,1723.6,372.391,1718.2,385.307" style="stroke: #A80036; stroke-width: 1.0;"/><path d="M1100.26,227.4 C1100.71,251.115 1101.24,278.38 1101.63,298.985 " fill="none" style="stroke: #A80036; stroke-width: 1.0;"/><polygon fill="none" points="1093.26,227.454,1099.87,207.323,1107.25,227.185,1093.26,227.454" style="stroke: #A80036; stroke-width: 1.0;"/><path d="M1173.1,216.09 C1180.8,219.692 1188.61,223.073 1196.25,226 C1299.83,265.69 1423.69,294.79 1508.98,312.158 " fill="none" style="stroke: #A80036; stroke-width: 1.0;"/><polygon fill="none" points="1169.73,222.232,1154.88,207.112,1175.91,209.674,1169.73,222.232" style="stroke: #A80036; stroke-width: 1.0;"/><path d="M1029.05,50.683 C903.759,76.889 642.918,131.447 516.302,157.93 " fill="none" style="stroke: #A80036; stroke-width: 1.0;"/><polygon fill="none" points="1027.66,43.822,1048.67,46.579,1030.53,57.526,1027.66,43.822" style="stroke: #A80036; stroke-width: 1.0;"/><path d="M1042.16,72.379 C1018.31,87.576 990.182,105.499 964.323,121.977 " fill="none" style="stroke: #A80036; stroke-width: 1.0;"/><polygon fill="none" points="1038.43,66.452,1059.06,61.608,1045.96,78.259,1038.43,66.452" style="stroke: #A80036; stroke-width: 1.0;"/><path d="M1150.19,73.722 C1181.81,97.14 1221.62,126.617 1249.61,147.347 " fill="none" style="stroke: #A80036; stroke-width: 1.0;"/><polygon fill="none" points="1145.95,79.297,1134.05,61.769,1154.29,68.046,1145.95,79.297" style="stroke: #A80036; stroke-width: 1.0;"/><path d="M1099.25,81.965 C1099.25,101.19 1099.25,123.08 1099.25,140.576 " fill="none" style="stroke: #A80036; stroke-width: 1.0;"/><polygon fill="none" points="1092.25,81.769,1099.25,61.769,1106.25,81.769,1092.25,81.769" style="stroke: #A80036; stroke-width: 1.0;"/><path d="M1169.37,52.756 C1225.44,67.427 1305.31,91.205 1371.25,122 C1382.74,127.366 1394.56,134.118 1405.46,140.937 " fill="none" style="stroke: #A80036; stroke-width: 1.0;"/><polygon fill="none" points="1167.5,59.504,1149.86,47.768,1170.97,45.94,1167.5,59.504" style="stroke: #A80036; stroke-width: 1.0;"/></g></svg>